<svg width="300" height="300" viewBox="0 0 300 300" fill="none" xmlns="http://www.w3.org/2000/svg">
<g clip-path="url(#clip0_54_715)">
<path d="M141.9 0.222846C224.616 -4.25095 295.299 59.1754 299.777 141.892C304.255 224.609 240.832 295.294 158.118 299.778C75.3939 304.259 4.70136 240.83 0.22327 158.107C-4.2551 75.386 59.1769 4.69693 141.9 0.222846Z" fill="black"/>
<path d="M147.493 44.8291C179.721 43.2367 209.906 58.4894 230.685 82.6096C250.028 105.062 257.033 134.149 255.007 163.267C254.318 173.136 249.553 183.311 241.902 189.663C234.88 195.5 225.821 198.296 216.733 197.426C209.9 196.716 203.413 194.067 198.04 189.786C173.798 170.489 194.981 148.098 176.805 126.591C170.65 119.306 161.829 114.8 152.317 114.084C142.888 113.376 133.564 116.45 126.404 122.627C119.282 128.789 114.905 137.531 114.24 146.925C113.516 156.431 116.667 165.825 122.977 172.973C129.155 180.057 137.93 184.355 147.316 184.893C163.5 185.94 173.523 181.883 187.784 194.376C202.166 206.977 203.325 228.79 190.78 243.171C183.77 251.212 172.965 254.9 162.487 255.515C131.377 257.261 103.247 249.338 79.9623 228.601C35.5866 189.085 32.6007 120.605 73.6535 77.5844C94.3752 55.8695 117.493 46.246 147.493 44.8291Z" fill="white"/>
</g>
<defs>
<clipPath id="clip0_54_715">
<rect width="300" height="300" fill="white"/>
</clipPath>
</defs>
</svg>
